:FULLY-SPECIFIED
:FORCE-ALL-JOINTS-BE-3DOF
:DEGREES
324
root 9.70461 16.3558 9.4785 7.00436 9.59783 3.90727
lfemur 25.4512 4.71289 -21.0563
ltibia -1.5866e-14 0 0
lfoot -4.93046 -5.15167 0
ltoes -16.0128 0 0
rfemur -42.8872 1.39813 14.1705
rtibia 36.4443 0 0
rfoot -5.89788 -1.24569 0
rtoes -25.5555 0 0
lowerback -7.84916 -4.74147 -5.97353
upperback -1.12321 -5.87513 1.91078
thorax 4.02351 -3.0249 4.64222
lowerneck -19.2759 -5.21167 -13.182
upperneck 21.1978 -6.66184 13.2768
head 10.9469 -2.59248 6.06042
lclavicle 5.83623e-14 -2.25216e-14 0
lhumerus -23.2698 -39.877 99.7852
lradius 40.9028 0 0
lwrist 9.41959 0 0
lhand -5.56771 -24.658 0
lfingers 7.12502 0 0
lthumb 20.2478 4.30524 0
rclavicle 5.83623e-14 -2.25216e-14 0
rhumerus -50.7696 5.04082 -82.6671
rradius 30.4613 0 0
rwrist -16.0798 0 0
rhand -28.8692 -23.5099 0
rfingers 7.12502 0 0
rthumb -2.22536 -53.4757 0
325
root 9.71446 16.357 9.40526 7.03589 9.62955 4.06667
lfemur 25.2445 4.60685 -21.3812
ltibia -2.22639e-14 0 0
lfoot -5.61253 -5.23758 0
ltoes -15.9721 0 0
rfemur -42.9554 1.41571 13.8219
rtibia 36.0984 0 0
rfoot -5.89992 -1.43473 0
rtoes -25.9582 0 0
lowerback -7.84496 -4.75946 -6.09206
upperback -1.11204 -5.88748 1.8652
thorax 4.04119 -3.033 4.65889
lowerneck -19.2679 -5.23091 -13.2079
upperneck 21.2002 -6.68494 13.2864
head 10.9512 -2.60437 6.0651
lclavicle 5.91136e-14 -2.46493e-14 0
lhumerus -22.9838 -40.1631 99.6052
lradius 41.1032 0 0
lwrist 9.53411 0 0
lhand -5.41681 -24.6079 0
lfingers 7.12502 0 0
lthumb 20.3929 4.34126 0
rclavicle 5.91136e-14 -2.46493e-14 0
rhumerus -50.8726 5.02672 -82.7013
rradius 30.5771 0 0
rwrist -16.2647 0 0
rhand -29.1207 -23.2765 0
rfingers 7.12502 0 0
rthumb -2.46829 -53.2419 0
326
root 9.68378 16.3554 9.64874 6.89218 9.57996 3.51598
lfemur 25.8016 4.93028 -20.285
ltibia 0.335925 0 0
lfoot -3.56472 -5.03554 0
ltoes -16.8667 0 0
rfemur -42.7341 1.4448 14.8617
rtibia 37.2415 0 0
rfoot -5.24455 -0.825035 0
rtoes -24.2576 0 0
lowerback -7.81963 -4.70199 -5.65016
upperback -1.13977 -5.85689 2.02329
thorax 3.96702 -3.01029 4.5855
lowerneck -19.2674 -5.16864 -13.1822
upperneck 21.1242 -6.60714 13.3253
head 10.9115 -2.56222 6.08514
lclavicle 5.57927e-14 -2.1986e-14 0
lhumerus -23.8815 -39.3023 100.207
lradius 40.4046 0 0
lwrist 9.09338 0 0
lhand -5.93965 -24.778 0
lfingers 7.12502 0 0
lthumb 19.89 4.21956 0
rclavicle 5.57927e-14 -2.1986e-14 0
rhumerus -50.6186 5.06919 -82.5841
rradius 30.3472 0 0
rwrist -15.9389 0 0
rhand -28.5603 -23.7338 0
rfingers 7.12502 0 0
rthumb -1.927 -53.7 0
327
root 9.64315 16.3603 9.95332 6.72439 9.48166 2.76207
lfemur 26.2428 5.38736 -18.8315
ltibia 1.07496 0 0
lfoot -0.730635 -4.60477 0
ltoes -17.3324 0 0
rfemur -42.3511 1.60233 16.2311
rtibia 38.5841 0 0
rfoot -5.2366 -0.269636 0
rtoes -21.892 0 0
lowerback -7.80649 -4.63088 -5.0704
upperback -1.18081 -5.82072 2.2458
thorax 3.87845 -2.98308 4.50278
lowerneck -19.2892 -5.08013 -13.0896
upperneck 21.0761 -6.49959 13.3142
head 10.8773 -2.50586 6.08002
lclavicle 4.9251e-14 -1.51371e-14 0
lhumerus -24.9885 -37.899 100.886
lradius 39.3103 0 0
lwrist 8.58597 0 0
lhand -6.76892 -24.9654 0
lfingers 7.12502 0 0
lthumb 19.0924 4.10849 0
rclavicle 4.9251e-14 -1.51371e-14 0
rhumerus -50.1662 5.13258 -82.4163
rradius 29.9797 0 0
rwrist -15.3411 0 0
rhand -27.6517 -24.5196 0
rfingers 7.12502 0 0
rthumb -1.04953 -54.4876 0
328
root 9.60142 16.3676 10.2574 6.56156 9.35147 1.96823
lfemur 26.6468 5.87344 -17.333
ltibia 1.81399 0 0
lfoot 2.27046 -4.07683 0
ltoes -17.5241 0 0
rfemur -41.9344 1.83074 17.6433
rtibia 39.9043 0 0
rfoot -5.61078 0.187722 0
rtoes -19.3752 0 0
lowerback -7.80786 -4.55658 -4.46937
upperback -1.22436 -5.78145 2.48255
thorax 3.79458 -2.95433 4.42233
lowerneck -19.3189 -4.98323 -12.9668
upperneck 21.0486 -6.38267 13.2733
head 10.8482 -2.44584 6.06041
lclavicle 4.15759e-14 -6.21201e-15 0
lhumerus -26.1002 -36.3581 101.541
lradius 38.1313 0 0
lwrist 8.11218 0 0
lhand -7.68782 -25.1417 0
lfingers 7.12502 0 0
lthumb 18.2085 4.01681 0
rclavicle 4.15759e-14 -6.21201e-15 0
rhumerus -49.6479 5.20546 -82.2394
rradius 29.5623 0 0
rwrist -14.6411 0 0
rhand -26.6075 -25.4284 0
rfingers 7.12502 0 0
rthumb -0.0410262 -55.3985 0
329
root 9.56744 16.3733 10.4993 6.43273 9.20618 1.29778
lfemur 27.0924 6.28389 -16.1017
ltibia 2.14992 0 0
lfoot 4.81931 -3.58328 0
ltoes -17.5965 0 0
rfemur -41.6119 2.07246 18.8119
rtibia 40.9804 0 0
rfoot -6.10182 0.503298 0
rtoes -17.2215 0 0
lowerback -7.82605 -4.48949 -3.96369
upperback -1.25961 -5.74154 2.68337
thorax 3.73447 -2.927 4.35575
lowerneck -19.3419 -4.8958 -12.8506
upperneck 21.0343 -6.27674 13.223
head 10.8244 -2.39271 6.03702
lclavicle 3.48549e-14 2.67993e-15 0
lhumerus -27.012 -35.0847 102.071
lradius 37.1787 0 0
lwrist 7.77231 0 0
lhand -8.47952 -25.2784 0
lfingers 7.12502 0 0
lthumb 17.447 3.9533 0
rclavicle 3.48549e-14 2.67993e-15 0
rhumerus -49.1962 5.27641 -82.0946
rradius 29.1828 0 0
rwrist -14.0087 0 0
rhand -25.6401 -26.2547 0
rfingers 7.12502 0 0
rthumb 0.893382 -56.2266 0
330
root 9.55005 16.3735 10.6175 6.36695 9.0626 0.914007
lfemur 27.6581 6.51407 -15.4499
ltibia 1.67962 0 0
lfoot 6.29665 -3.2557 0
ltoes -17.7044 0 0
rfemur -41.5116 2.26991 19.45
rtibia 41.5906 0 0
rfoot -6.44442 0.633346 0
rtoes -15.9448 0 0
lowerback -7.86338 -4.44006 -3.66998
upperback -1.27578 -5.70346 2.79811
thorax 3.71723 -2.90408 4.31463
lowerneck -19.3439 -4.83569 -12.7776
upperneck 21.0258 -6.20215 13.1834
head 10.8055 -2.357 6.02054
lclavicle 3.11756e-14 9.42941e-15 0
lhumerus -27.5193 -34.4838 102.375
lradius 36.7636 0 0
lwrist 7.66666 0 0
lhand -8.92722 -25.3471 0
lfingers 7.12502 0 0
lthumb 17.0165 3.92673 0
rclavicle 3.11756e-14 9.42941e-15 0
rhumerus -48.9437 5.33402 -82.0235
rradius 28.9288 0 0
rwrist -13.6137 0 0
rhand -24.9617 -26.793 0
rfingers 7.12502 0 0
rthumb 1.54855 -56.766 0
331
root 9.55811 16.3642 10.5503 6.39325 8.93754 0.980213
lfemur 28.4227 6.45934 -15.6899
ltibia 8.26944e-14 0 0
lfoot 6.08322 -3.22564 0
ltoes -18.0026 0 0
rfemur -41.7613 2.36554 19.2712
rtibia 41.5131 0 0
rfoot -6.37333 0.534125 0
rtoes -16.0592 0 0
lowerback -7.92215 -4.41869 -3.70483
upperback -1.26205 -5.66969 2.7766
thorax 3.76192 -2.88852 4.31058
lowerneck -19.3102 -4.82077 -12.7845
upperneck 21.0156 -6.17929 13.1749
head 10.7916 -2.34926 6.02165
lclavicle 3.26255e-14 1.19271e-14 0
lhumerus -27.4178 -34.9605 102.352
lradius 37.197 0 0
lwrist 7.89553 0 0
lhand -8.8141 -25.3194 0
lfingers 7.12502 0 0
lthumb 17.1254 3.94587 0
rclavicle 3.26255e-14 1.19271e-14 0
rhumerus -49.0229 5.36685 -82.0674
rradius 28.8882 0 0
rwrist -13.6259 0 0
rhand -24.7849 -26.8377 0
rfingers 7.12502 0 0
rthumb 1.71933 -56.8105 0
332
root 9.52958 16.3924 10.7732 6.30705 9.18322 0.637136
lfemur 26.4972 6.69382 -14.8139
ltibia 4.36998 0 0
lfoot 7.27646 -3.02876 0
ltoes -17.0828 0 0
rfemur -41.0052 2.25251 20.0045
rtibia 41.8769 0 0
rfoot -6.99332 0.761902 0
rtoes -15.2006 0 0
lowerback -7.78685 -4.44647 -3.48982
upperback -1.30372 -5.73149 2.88276
thorax 3.63958 -2.91457 4.30618
lowerneck -19.4066 -4.83887 -12.729
upperneck 21.0477 -6.21447 13.175
head 10.8256 -2.35735 6.00774
lclavicle 2.69512e-14 9.7331e-15 0
lhumerus -27.8589 -33.3564 102.474
lradius 35.8032 0 0
lwrist 7.28107 0 0
lhand -9.3179 -25.3623 0
lfingers 7.12502 0 0
lthumb 16.6405 3.94516 0
rclavicle 2.69512e-14 9.7331e-15 0
rhumerus -48.6581 5.30967 -81.9239
rradius 28.8947 0 0
rwrist -13.4326 0 0
rhand -24.9205 -26.9515 0
rfingers 7.12502 0 0
rthumb 1.58831 -56.9254 0
